<svg id="Layer_1" data-name="Layer 1" xmlns="http://www.w3.org/2000/svg" viewBox="0 0 37.15 34.65"><defs><style>.cls-1{fill:#f8b62d;}.cls-1,.cls-2{stroke:#231815;stroke-miterlimit:10;}.cls-2,.cls-4{fill:#231815;}.cls-3{fill:#fff;}</style></defs><g id="图层_1" data-name="图层 1"><path class="cls-1" d="M25.4,28a8.73,8.73,0,0,1,8.4-3.2l1.1.3a8.68,8.68,0,0,0-16-3.2,8.93,8.93,0,0,0-.5,8.1.35.35,0,0,1,.2-.1A7.25,7.25,0,0,1,25.4,28Z" transform="translate(-8.35 -8.25)"/><path class="cls-2" d="M18.5,29.9a8.63,8.63,0,0,1,.5-8.1A8.68,8.68,0,0,1,35,25a6.53,6.53,0,0,1,1.7.8,10.3,10.3,0,0,0-18.2-6,10.5,10.5,0,0,0-1.1,11.5A7.55,7.55,0,0,1,18.5,29.9Z" transform="translate(-8.35 -8.25)"/><path class="cls-2" d="M27.2,13.1V9.5a.8.8,0,0,0-1.6,0v3.6A.8.8,0,0,0,27.2,13.1Zm-.8-3.6Z" transform="translate(-8.35 -8.25)"/><path class="cls-2" d="M19.1,15.3a.81.81,0,0,0,1.4-.8l-1.8-3.1a.81.81,0,0,0-1.4.8Zm.7-.4L18,11.8Z" transform="translate(-8.35 -8.25)"/><path class="cls-2" d="M15.3,19l-3.1-1.8a.81.81,0,0,0-.8,1.4l3.1,1.8A.81.81,0,0,0,15.3,19Zm-3.5-1.1,3.1,1.8Z" transform="translate(-8.35 -8.25)"/><path class="cls-2" d="M9.6,27.1h3.6a.8.8,0,0,0,0-1.6H9.6A.8.8,0,0,0,9.6,27.1Zm3.5-.8Z" transform="translate(-8.35 -8.25)"/><path class="cls-2" d="M12.2,35.4l3.1-1.8a.81.81,0,0,0-.8-1.4L11.4,34A.81.81,0,0,0,12.2,35.4Zm2.7-2.5-3.1,1.8Z" transform="translate(-8.35 -8.25)"/><path class="cls-2" d="M39.6,27.1h3.6a.8.8,0,0,0,0-1.6H39.6A.8.8,0,0,0,39.6,27.1Zm0-.8Z" transform="translate(-8.35 -8.25)"/><path class="cls-2" d="M38.2,20.4l3.1-1.8a.81.81,0,0,0-.8-1.4L37.4,19A.81.81,0,0,0,38.2,20.4Zm2.7-2.5-3.1,1.8Z" transform="translate(-8.35 -8.25)"/><path class="cls-2" d="M33.7,15.3l1.8-3.1a.81.81,0,0,0-1.4-.8l-1.8,3.1C31.8,15.3,33.2,16.1,33.7,15.3Zm1.1-3.5L33,14.9Z" transform="translate(-8.35 -8.25)"/><path class="cls-2" d="M40.3,30.2c.1.1.1.3.2.5s.1.3,0,.4a5.54,5.54,0,0,1,3.3,7,5.41,5.41,0,0,1-5.2,3.6H23.7a6.66,6.66,0,0,1-6.6-6.6,6.81,6.81,0,0,1,.8-3.1c-.1-.2-.2-.3-.3-.5s-.1-.2-.2-.3a7.52,7.52,0,0,0-1,5.1,7.15,7.15,0,0,0,4.1,5.4,8.48,8.48,0,0,0,3.9.7H37.5a10.88,10.88,0,0,0,3.1-.3A6.56,6.56,0,0,0,45,36,6.62,6.62,0,0,0,40.3,30.2Z" transform="translate(-8.35 -8.25)"/><path class="cls-2" d="M23.7,28.6a6.45,6.45,0,0,1,2,.3,7.89,7.89,0,0,1,9.3-3,2.77,2.77,0,0,0-.1-.9l-1.1-.3a8.73,8.73,0,0,0-8.4,3.2,4.33,4.33,0,0,1,.5.1l-.9.4a1.76,1.76,0,0,1,.4-.5,7.38,7.38,0,0,0-6.8,1.8c-.1,0-.1.1-.2.1a1.61,1.61,0,0,0,.4.7A7.33,7.33,0,0,1,23.7,28.6Z" transform="translate(-8.35 -8.25)"/><path class="cls-2" d="M26,28.1a.9.9,0,0,0-.5-.1c-.1.2-.3.3-.4.5Z" transform="translate(-8.35 -8.25)"/><path class="cls-2" d="M36.6,26.7a7.19,7.19,0,0,1,2.8,3.4.45.45,0,0,1,.5,0c.1,0,.3.1.4.1a8.45,8.45,0,0,0-3.7-4.4v.9Z" transform="translate(-8.35 -8.25)"/><path class="cls-2" d="M39.4,30.2c.1.2.2.5.3.7.3.1.5.1.8.2v-.4c0-.2-.1-.3-.2-.5-.1,0-.3-.1-.4-.1A1.09,1.09,0,0,0,39.4,30.2Z" transform="translate(-8.35 -8.25)"/><path class="cls-2" d="M36.6,26.3a.81.81,0,0,0-1.5-.4,6.11,6.11,0,0,1,1.4.7C36.6,26.6,36.6,26.4,36.6,26.3Z" transform="translate(-8.35 -8.25)"/><path class="cls-2" d="M36.6,26.7v0Z" transform="translate(-8.35 -8.25)"/><path class="cls-2" d="M17.9,32.1a7.1,7.1,0,0,1,1-1.4c-.1-.2-.3-.5-.4-.7a7.55,7.55,0,0,0-1.1,1.4c.1.1.1.2.2.3A1.38,1.38,0,0,1,17.9,32.1Z" transform="translate(-8.35 -8.25)"/><path class="cls-2" d="M35,25.9h.1a.81.81,0,0,1,1.5.4v-.5a8.86,8.86,0,0,0-1.7-.8A2.77,2.77,0,0,1,35,25.9Z" transform="translate(-8.35 -8.25)"/><path class="cls-3" d="M43.3,36a4.88,4.88,0,0,1-3,4.7,7.43,7.43,0,0,1-2.6.3H23.8A5.8,5.8,0,0,1,18,35.2a6.87,6.87,0,0,1,.5-2.4,10.91,10.91,0,0,1,.6-1.1l.3-.3a5.79,5.79,0,0,1,6.2-1.7.81.81,0,0,0,.9-.4,7.15,7.15,0,0,1,7.1-3,8.8,8.8,0,0,1,1.5.5c.1,0,.2.1.3.1s.2.1.3.2a6.86,6.86,0,0,1,3.3,4c0,.3.3.5.6.6A4.59,4.59,0,0,1,43.3,36Z" transform="translate(-8.35 -8.25)"/><path class="cls-4" d="M40.5,31.1a5.54,5.54,0,0,1,3.3,7,5.41,5.41,0,0,1-5.2,3.6H23.7a6.6,6.6,0,1,1,0-13.2,6.45,6.45,0,0,1,2,.3,7.89,7.89,0,0,1,9.3-3h.1a6.11,6.11,0,0,1,1.4.7h.1a7.19,7.19,0,0,1,2.8,3.4c.1.2.2.5.3.7A1.77,1.77,0,0,0,40.5,31.1Zm-.2,9.5a4.79,4.79,0,0,0,3-4.7,4.67,4.67,0,0,0-3.8-4.3c-.3,0-.5-.3-.6-.6a7.31,7.31,0,0,0-3.3-4c-.1-.1-.2-.1-.3-.2a.37.37,0,0,0-.3-.1,8.8,8.8,0,0,0-1.5-.5,7.07,7.07,0,0,0-7.1,3,.81.81,0,0,1-.9.4,5.79,5.79,0,0,0-6.2,1.7l-.3.3a2.38,2.38,0,0,0-.6,1.1,5.9,5.9,0,0,0,2.9,7.7,6.44,6.44,0,0,0,2.4.5H37.6a4.83,4.83,0,0,0,2.7-.3Z" transform="translate(-8.35 -8.25)"/></g></svg>